<svg width="16" height="16" viewBox="0 0 16 16" fill="none" xmlns="http://www.w3.org/2000/svg">
<path fill-rule="evenodd" clip-rule="evenodd" d="M12.9498 6.58577L9.1314 10.4041C9.12492 10.4106 9.1185 10.417 9.11212 10.4234C8.7289 10.8066 8.53364 10.9994 8.30904 11.0724C8.1082 11.1376 7.89185 11.1376 7.69101 11.0724C7.46268 10.9982 7.26467 10.8002 6.86866 10.4041L3.05028 6.58577C2.65975 6.19524 2.65975 5.56208 3.05028 5.17156C3.4408 4.78103 4.07397 4.78103 4.46449 5.17155L8.00003 8.70709L11.5356 5.17156C11.9261 4.78103 12.5592 4.78103 12.9498 5.17156C13.3403 5.56208 13.3403 6.19524 12.9498 6.58577Z" fill="#0080FF"/>
</svg>
