<svg width="16" height="16" viewBox="0 0 16 16" fill="none" xmlns="http://www.w3.org/2000/svg">
<path d="M4.11092 7.0535C3.91566 6.85824 3.91566 6.54166 4.11092 6.3464C4.30619 6.15114 4.62277 6.15114 4.81803 6.3464L8.00001 9.52838L8.35226 9.17613L8.35356 9.17482L11.182 6.3464C11.3773 6.15114 11.6938 6.15114 11.8891 6.3464C12.0844 6.54166 12.0844 6.85824 11.8891 7.0535L10.4408 8.50184C10.4288 8.51384 10.4166 8.52604 10.4042 8.53843L9.13138 9.81122C9.11899 9.82361 9.1068 9.83581 9.09479 9.84781L9.06067 9.88193L9.057 9.88556C8.70964 10.2323 8.5226 10.41 8.30903 10.4794C8.10819 10.5447 7.89184 10.5447 7.691 10.4794C7.47748 10.4101 7.29048 10.2324 6.94327 9.88581L6.93935 9.88193L4.11092 7.0535Z" fill="#0080FF"/>
</svg>
