<svg width="16" height="16" viewBox="0 0 16 16" fill="none" xmlns="http://www.w3.org/2000/svg">
<path d="M8.66718 9.81693C8.44421 10.1549 8.33272 10.3238 8.19185 10.3825C8.06871 10.4339 7.93016 10.4339 7.80703 10.3825C7.66616 10.3238 7.55467 10.1549 7.3317 9.81693L5.35392 6.81951C5.0878 6.4162 4.95474 6.21455 4.96528 6.04746C4.97446 5.90188 5.04675 5.76757 5.1632 5.67973C5.29687 5.57892 5.53846 5.57892 6.02166 5.57892L9.97722 5.57892C10.4604 5.57892 10.702 5.57892 10.8357 5.67973C10.9521 5.76757 11.0244 5.90188 11.0336 6.04746C11.0441 6.21455 10.9111 6.4162 10.645 6.81951L8.66718 9.81693Z" fill="#2C3852" fill-opacity="0.6"/>
</svg>
