<svg width="16" height="16" viewBox="0 0 16 16" fill="none" xmlns="http://www.w3.org/2000/svg">
<path fill-rule="evenodd" clip-rule="evenodd" d="M8 1.5C4.41015 1.5 1.5 4.41015 1.5 8C1.5 11.5899 4.41015 14.5 8 14.5C11.5899 14.5 14.5 11.5899 14.5 8C14.5 4.41015 11.5899 1.5 8 1.5ZM7.25 4.5C7.25 4.08579 7.58579 3.75 8 3.75C8.41421 3.75 8.75 4.08579 8.75 4.5V8.00188C8.75 8.41609 8.41421 8.75188 8 8.75188C7.58579 8.75188 7.25 8.41609 7.25 8.00188V4.5ZM7.125 10.875C7.125 10.3918 7.51675 10 8 10C8.48325 10 8.875 10.3918 8.875 10.875C8.875 11.3582 8.48325 11.75 8 11.75C7.51675 11.75 7.125 11.3582 7.125 10.875Z" fill="#F0483E"/>
</svg>
