<svg width="16" height="16" viewBox="0 0 16 16" fill="none" xmlns="http://www.w3.org/2000/svg">
<path fill-rule="evenodd" clip-rule="evenodd" d="M11 8C11 9.65686 9.65686 11 8 11C6.34315 11 5 9.65686 5 8C5 6.34315 6.34315 5 8 5C9.65686 5 11 6.34315 11 8ZM10 8C10 9.10457 9.10457 10 8 10C6.89544 10 6 9.10457 6 8C6 6.89544 6.89544 6 8 6C9.10457 6 10 6.89544 10 8Z" fill="url(#paint0_radial)"/>
<path fill-rule="evenodd" clip-rule="evenodd" d="M7.3694 0.500001C7.28378 0.499987 7.19361 0.499972 7.11562 0.505994C7.02737 0.51281 6.9175 0.529291 6.80292 0.582388C6.64628 0.654971 6.51417 0.771595 6.42272 0.918019C6.35582 1.02513 6.32584 1.13211 6.30813 1.21884C6.29248 1.29549 6.28132 1.38491 6.27071 1.46989L6.17285 2.25281C6.16822 2.28983 6.16459 2.31883 6.16119 2.34386C6.13397 2.35372 6.09849 2.36609 6.04981 2.383C5.82941 2.45951 5.61494 2.5486 5.40725 2.64942C5.36095 2.67189 5.32717 2.68822 5.30099 2.7005C5.28089 2.68521 5.25782 2.66727 5.22838 2.64438L4.60531 2.15976C4.53772 2.10717 4.46659 2.05183 4.40131 2.00869C4.32746 1.95989 4.23062 1.90544 4.10758 1.87701C3.93937 1.83814 3.76349 1.84909 3.60141 1.90852C3.48284 1.952 3.3935 2.01803 3.32627 2.07562C3.26685 2.12652 3.20314 2.19026 3.14259 2.25083L2.25078 3.14264C2.19021 3.20318 2.12647 3.2669 2.07557 3.32632C2.01798 3.39355 1.95195 3.48289 1.90847 3.60146C1.84904 3.76354 1.83809 3.93942 1.87696 4.10763C1.90539 4.23067 1.95984 4.32751 2.00864 4.40136C2.05178 4.46664 2.10712 4.53777 2.15971 4.60536L2.64434 5.22845C2.66724 5.25789 2.68517 5.28096 2.70047 5.30106C2.68819 5.32724 2.67185 5.36102 2.64938 5.40731C2.54859 5.61498 2.4595 5.82944 2.383 6.04981C2.3661 6.09849 2.35372 6.13397 2.34386 6.16119C2.31883 6.16459 2.28983 6.16822 2.25281 6.17285L1.46989 6.27071C1.38491 6.28132 1.29549 6.29248 1.21884 6.30813C1.13211 6.32584 1.02513 6.35582 0.918019 6.42272C0.771595 6.51417 0.654971 6.64628 0.582388 6.80292C0.529291 6.9175 0.51281 7.02737 0.505994 7.11562C0.499972 7.19361 0.499987 7.28371 0.500001 7.36933V8.63061C0.499987 8.71623 0.499972 8.8064 0.505994 8.88439C0.51281 8.97264 0.529291 9.08251 0.582388 9.19709C0.654971 9.35373 0.771596 9.48584 0.918019 9.57729C1.02513 9.64419 1.13211 9.67417 1.21884 9.69188C1.29548 9.70753 1.38487 9.71869 1.46984 9.7293L2.25281 9.82716C2.28982 9.83179 2.31883 9.83542 2.34386 9.83882C2.35372 9.86604 2.3661 9.90152 2.383 9.9502C2.45952 10.1706 2.54863 10.3851 2.64946 10.5928C2.67193 10.6391 2.68826 10.6729 2.70054 10.6991C2.68525 10.7192 2.66731 10.7423 2.64442 10.7717L2.15978 11.3948C2.10718 11.4624 2.05183 11.5336 2.00869 11.5988C1.95988 11.6727 1.90544 11.7695 1.877 11.8926C1.83813 12.0608 1.84908 12.2367 1.90852 12.3987C1.95199 12.5173 2.01803 12.6067 2.07562 12.6739C2.12652 12.7333 2.19026 12.797 2.25083 12.8576L3.14262 13.7493C3.20317 13.8099 3.26689 13.8737 3.32632 13.9246C3.39355 13.9822 3.48289 14.0482 3.60146 14.0917C3.76354 14.1511 3.93942 14.1621 4.10762 14.1232C4.23067 14.0948 4.32751 14.0403 4.40136 13.9915C4.46661 13.9484 4.53771 13.8931 4.60528 13.8405L5.22856 13.3557C5.258 13.3328 5.28107 13.3149 5.30117 13.2996C5.32735 13.3119 5.36113 13.3282 5.40742 13.3507C5.61506 13.4515 5.82947 13.5405 6.04981 13.617C6.09849 13.6339 6.13396 13.6463 6.16119 13.6561C6.16459 13.6812 6.16822 13.7102 6.17285 13.7472L6.27071 14.5301C6.28132 14.6151 6.29248 14.7045 6.30813 14.7812C6.32584 14.8679 6.35582 14.9749 6.42272 15.082C6.51417 15.2284 6.64628 15.345 6.80292 15.4176C6.9175 15.4707 7.02737 15.4872 7.11562 15.494C7.19362 15.5 7.28372 15.5 7.36934 15.5H8.63062C8.71625 15.5 8.80639 15.5 8.88439 15.494C8.97264 15.4872 9.08251 15.4707 9.19709 15.4176C9.35373 15.345 9.48584 15.2284 9.57729 15.082C9.64419 14.9749 9.67417 14.8679 9.69188 14.7812C9.70753 14.7045 9.71869 14.6151 9.7293 14.5301L9.82716 13.7472C9.83179 13.7102 9.83543 13.6812 9.83882 13.6561C9.86605 13.6463 9.90152 13.6339 9.9502 13.617C10.1705 13.5405 10.385 13.4514 10.5926 13.3507C10.6389 13.3282 10.6727 13.3119 10.6989 13.2996C10.719 13.3149 10.742 13.3328 10.7715 13.3557L11.3947 13.8404C11.4622 13.893 11.5334 13.9483 11.5986 13.9915C11.6725 14.0403 11.7693 14.0947 11.8924 14.1231C12.0606 14.162 12.2365 14.1511 12.3986 14.0916C12.5171 14.0482 12.6065 13.9821 12.6737 13.9245C12.7331 13.8736 12.7968 13.8099 12.8574 13.7493L13.7492 12.8575C13.8098 12.797 13.8735 12.7333 13.9244 12.6738C13.982 12.6066 14.048 12.5173 14.0915 12.3987C14.1509 12.2366 14.1619 12.0607 14.123 11.8925C14.0946 11.7695 14.0401 11.6726 13.9913 11.5988C13.9482 11.5335 13.8929 11.4624 13.8403 11.3949L13.3556 10.7717C13.3327 10.7422 13.3148 10.7192 13.2995 10.6991C13.3118 10.6729 13.3281 10.6391 13.3506 10.5928C13.4514 10.3851 13.5405 10.1706 13.617 9.9502C13.6339 9.90152 13.6463 9.86604 13.6562 9.83882C13.6812 9.83542 13.7102 9.83179 13.7472 9.82716L14.5301 9.7293C14.6151 9.71869 14.7045 9.70753 14.7812 9.69188C14.8679 9.67417 14.9749 9.64419 15.082 9.57729C15.2284 9.48584 15.345 9.35373 15.4176 9.19709C15.4707 9.08251 15.4872 8.97264 15.494 8.88439C15.5 8.80639 15.5 8.71629 15.5 8.63067V7.36939C15.5 7.28376 15.5 7.19362 15.494 7.11562C15.4872 7.02737 15.4707 6.9175 15.4176 6.80292C15.345 6.64628 15.2284 6.51417 15.082 6.42272C14.9749 6.35582 14.8679 6.32584 14.7812 6.30813C14.7045 6.29248 14.6151 6.28132 14.5301 6.27071L13.7472 6.17285C13.7102 6.16822 13.6812 6.16459 13.6561 6.16119C13.6463 6.13396 13.6339 6.09849 13.617 6.04981C13.5405 5.82945 13.4514 5.615 13.3506 5.40734C13.3282 5.36105 13.3118 5.32726 13.2996 5.30108C13.3149 5.28098 13.3328 5.25791 13.3557 5.22848L13.8403 4.6054C13.8929 4.53781 13.9482 4.46669 13.9914 4.40141C14.0402 4.32756 14.0946 4.23072 14.1231 4.10767C14.1619 3.93946 14.151 3.76358 14.0915 3.6015C14.0481 3.48294 13.982 3.39359 13.9244 3.32637C13.8735 3.26695 13.8098 3.20324 13.7492 3.1427L12.8574 2.25089C12.7969 2.19031 12.7332 2.12657 12.6737 2.07566C12.6065 2.01808 12.5172 1.95204 12.3986 1.90856C12.2365 1.84913 12.0606 1.83818 11.8924 1.87705C11.7694 1.90549 11.6725 1.95993 11.5987 2.00873C11.5334 2.05187 11.4623 2.10721 11.3947 2.15979L10.7717 2.64439C10.7422 2.66729 10.7192 2.68522 10.6991 2.70052C10.6729 2.68824 10.6391 2.6719 10.5928 2.64943C10.3851 2.54861 10.1706 2.45951 9.9502 2.383C9.90152 2.3661 9.86604 2.35372 9.83882 2.34386C9.83542 2.31883 9.83179 2.28982 9.82716 2.25281L9.7293 1.46989C9.71869 1.38493 9.70753 1.29548 9.69188 1.21884C9.67417 1.13211 9.64419 1.02513 9.57729 0.918019C9.48584 0.771596 9.35373 0.654971 9.19709 0.582388C9.08251 0.529291 8.97264 0.51281 8.88439 0.505994C8.8064 0.499972 8.7163 0.499987 8.63068 0.500001H7.3694ZM7.26135 1.60707C7.26668 1.56442 7.27098 1.53009 7.27502 1.50034C7.30505 1.50001 7.33964 1.5 7.38262 1.5H8.61739C8.66037 1.5 8.69496 1.50001 8.72499 1.50034C8.72903 1.53009 8.73333 1.56442 8.73866 1.60707L8.83489 2.37684L8.83885 2.40955C8.85206 2.52017 8.87125 2.68089 8.93965 2.81963C8.99999 2.94203 9.07928 3.03998 9.18644 3.12449C9.26626 3.18746 9.34913 3.22543 9.41164 3.25097C9.47056 3.27505 9.54143 3.29964 9.61259 3.32434L9.62225 3.32769C9.80531 3.39124 9.9835 3.46526 10.1561 3.54905L10.1654 3.55354C10.2331 3.58641 10.3006 3.61918 10.3592 3.64385C10.4215 3.67004 10.5069 3.70183 10.6079 3.7138C10.7435 3.72988 10.869 3.71671 10.9982 3.67284C11.1448 3.6231 11.2721 3.52298 11.3597 3.45408L11.3856 3.43375L11.9982 2.95728C12.0321 2.93089 12.0594 2.90966 12.0833 2.89148C12.1048 2.91249 12.1293 2.93694 12.1597 2.96733L13.0328 3.84044C13.0632 3.87083 13.0876 3.8953 13.1086 3.91676C13.0904 3.94066 13.0692 3.96798 13.0428 4.0019L12.5663 4.61454L12.546 4.64047C12.4771 4.72805 12.377 4.85532 12.3272 5.00188C12.2834 5.13117 12.2702 5.25661 12.2863 5.39219C12.2982 5.49317 12.33 5.57862 12.3562 5.6409C12.3809 5.69958 12.4137 5.76708 12.4466 5.83481L12.451 5.844C12.5348 6.01658 12.6088 6.19474 12.6723 6.37776L12.6757 6.38744C12.7004 6.45859 12.725 6.52946 12.749 6.58837C12.7746 6.65088 12.8126 6.73375 12.8755 6.81358C12.96 6.92073 13.058 7.00001 13.1804 7.06036C13.3191 7.12877 13.4798 7.14795 13.5905 7.16116L13.6232 7.16512L14.3929 7.26135C14.4356 7.26668 14.4699 7.27098 14.4997 7.27502C14.5 7.30505 14.5 7.33964 14.5 7.38262V8.61739C14.5 8.66037 14.5 8.69496 14.4997 8.72499C14.4699 8.72903 14.4356 8.73333 14.3929 8.73866L13.6232 8.83489L13.5905 8.83885C13.4798 8.85206 13.3191 8.87125 13.1804 8.93965C13.058 8.99999 12.96 9.07928 12.8755 9.18644C12.8126 9.26626 12.7746 9.34913 12.749 9.41164C12.725 9.47053 12.7004 9.54137 12.6757 9.6125L12.6723 9.62225C12.6088 9.80531 12.5347 9.98351 12.451 10.1561L12.4465 10.1654C12.4136 10.2331 12.3808 10.3006 12.3562 10.3592C12.33 10.4215 12.2982 10.507 12.2862 10.608C12.2701 10.7435 12.2833 10.869 12.3272 10.9983C12.3769 11.1448 12.477 11.2721 12.5459 11.3597L12.5663 11.3856L13.0428 11.9983C13.0692 12.0322 13.0904 12.0595 13.1086 12.0834C13.0876 12.1049 13.0631 12.1294 13.0327 12.1598L12.1596 13.0329C12.1292 13.0633 12.1048 13.0877 12.0833 13.1087C12.0594 13.0905 12.0321 13.0693 11.9982 13.0429L11.3854 12.5664L11.3595 12.546C11.2719 12.4771 11.1446 12.377 10.9981 12.3273C10.8688 12.2834 10.7434 12.2702 10.6078 12.2863C10.5068 12.2983 10.4214 12.3301 10.3591 12.3562C10.3004 12.3809 10.2329 12.4137 10.1652 12.4465L10.156 12.451C9.9834 12.5348 9.80526 12.6088 9.62225 12.6723L9.61256 12.6757C9.54141 12.7004 9.47055 12.725 9.41164 12.749C9.34913 12.7746 9.26626 12.8126 9.18644 12.8755C9.07928 12.96 9 13.058 8.93965 13.1804C8.87125 13.3191 8.85206 13.4798 8.83885 13.5904L8.83489 13.6232L8.73866 14.3929C8.73333 14.4356 8.72903 14.4699 8.72499 14.4997C8.69496 14.5 8.66037 14.5 8.61739 14.5H7.38262C7.33964 14.5 7.30505 14.5 7.27502 14.4997C7.27098 14.4699 7.26668 14.4356 7.26135 14.3929L7.16512 13.6232L7.16116 13.5905C7.14795 13.4798 7.12877 13.3191 7.06036 13.1804C7.00002 13.058 6.92073 12.96 6.81358 12.8755C6.73375 12.8126 6.65088 12.7746 6.58837 12.749C6.52948 12.725 6.45864 12.7004 6.38752 12.6757L6.37776 12.6723C6.19477 12.6088 6.01663 12.5348 5.84406 12.451L5.83485 12.4466C5.76717 12.4137 5.69961 12.3809 5.64097 12.3563C5.57869 12.3301 5.49324 12.2983 5.39226 12.2863C5.25668 12.2702 5.13124 12.2834 5.00196 12.3273C4.8554 12.377 4.72814 12.4771 4.64056 12.546L4.61462 12.5664L4.00185 13.043C3.96793 13.0694 3.94061 13.0906 3.91671 13.1088C3.89525 13.0878 3.87078 13.0633 3.84039 13.0329L2.96729 12.1598C2.93689 12.1294 2.91244 12.1049 2.89144 12.0835C2.90962 12.0596 2.93085 12.0323 2.95723 11.9983L3.43377 11.3857L3.4541 11.3597C3.523 11.2721 3.62313 11.1449 3.67286 10.9983C3.71674 10.869 3.7299 10.7436 3.71382 10.608C3.70185 10.507 3.67006 10.4215 3.64387 10.3593C3.61919 10.3006 3.58642 10.2331 3.55354 10.1654L3.54907 10.1562C3.46527 9.98353 3.39124 9.80532 3.32769 9.62225L3.32434 9.61259C3.29964 9.54143 3.27505 9.47056 3.25097 9.41164C3.22543 9.34913 3.18746 9.26626 3.12449 9.18644C3.03998 9.07928 2.94203 8.99999 2.81963 8.93965C2.68089 8.87125 2.52017 8.85206 2.40956 8.83885L2.37684 8.83489L1.60707 8.73866C1.56442 8.73333 1.53009 8.72903 1.50034 8.72499C1.50001 8.69496 1.5 8.66037 1.5 8.61739V7.38262C1.5 7.33964 1.50002 7.30505 1.50034 7.27502C1.53009 7.27098 1.56442 7.26668 1.60707 7.26135L2.37684 7.16512L2.40955 7.16116C2.52017 7.14795 2.68089 7.12877 2.81963 7.06036C2.94204 7.00001 3.03998 6.92073 3.12449 6.81358C3.18746 6.73375 3.22543 6.65088 3.25098 6.58837C3.27504 6.52946 3.29964 6.4586 3.32433 6.38745L3.32769 6.37776C3.39123 6.19473 3.46524 6.01657 3.54901 5.84398L3.55349 5.83475C3.58637 5.76703 3.61913 5.69955 3.6438 5.64088C3.66999 5.5786 3.70178 5.49315 3.71375 5.39216C3.72982 5.25659 3.71666 5.13114 3.67278 5.00186C3.62304 4.8553 3.52293 4.72803 3.45403 4.64045L3.4337 4.61451L2.95719 4.00186C2.9308 3.96793 2.90957 3.94062 2.89139 3.91672C2.91239 3.89526 2.93685 3.87079 2.96724 3.8404L3.84035 2.96729C3.87074 2.9369 3.89521 2.91244 3.91667 2.89144C3.94057 2.90962 3.96788 2.93085 4.00181 2.95724L4.61444 3.43373L4.64038 3.45406C4.72796 3.52296 4.85523 3.62308 5.00179 3.67282C5.13108 3.71669 5.25652 3.72986 5.3921 3.71378C5.49309 3.70181 5.57854 3.67002 5.64082 3.64383C5.69949 3.61916 5.76697 3.5864 5.83469 3.55352L5.84392 3.54904C6.01653 3.46525 6.19471 3.39124 6.37776 3.32769L6.38744 3.32433C6.45858 3.29964 6.52946 3.27504 6.58837 3.25098C6.65088 3.22543 6.73375 3.18746 6.81358 3.12449C6.92073 3.03998 7.00001 2.94204 7.06036 2.81963C7.12877 2.68089 7.14795 2.52017 7.16116 2.40955L7.16512 2.37684L7.26135 1.60707Z" fill="url(#paint1_radial)"/>
<defs>
<radialGradient id="paint0_radial" cx="0" cy="0" r="1" gradientUnits="userSpaceOnUse" gradientTransform="translate(0.5 15.5) rotate(-45) scale(21.2132)">
<stop stop-color="#5BCAFF"/>
<stop offset="1" stop-color="#0066FF"/>
</radialGradient>
<radialGradient id="paint1_radial" cx="0" cy="0" r="1" gradientUnits="userSpaceOnUse" gradientTransform="translate(0.5 15.5) rotate(-45) scale(21.2132)">
<stop stop-color="#5BCAFF"/>
<stop offset="1" stop-color="#0066FF"/>
</radialGradient>
</defs>
</svg>
