<svg width="16" height="16" viewBox="0 0 16 16" fill="none" xmlns="http://www.w3.org/2000/svg">
<circle cx="8" cy="8" r="6.5" fill="#FF684A" fill-opacity="0.1" stroke="#F0483E"/>
<path d="M7.88422 9.7644C8.26556 9.7644 8.47504 9.55493 8.5556 9.19507C8.62543 8.7439 8.78656 8.51294 9.50092 8.09937C10.2582 7.65356 10.6503 7.10034 10.6503 6.28931C10.6503 5.03784 9.62445 4.19995 8.09906 4.19995C6.94427 4.19995 6.0849 4.65649 5.74115 5.36548C5.63373 5.56958 5.58002 5.77368 5.58002 6.00464C5.58002 6.41284 5.8432 6.67603 6.26752 6.67603C6.59515 6.67603 6.83685 6.52563 6.97113 6.18188C7.14301 5.70386 7.4975 5.44604 8.02386 5.44604C8.61469 5.44604 9.02289 5.81128 9.02289 6.33765C9.02289 6.83179 8.81342 7.10034 8.12054 7.51392C7.48676 7.88452 7.15912 8.30347 7.15912 8.93726V9.01245C7.15912 9.45288 7.42767 9.7644 7.88422 9.7644ZM7.89496 12.1545C8.38373 12.1545 8.77582 11.7839 8.77582 11.3113C8.77582 10.8386 8.38373 10.468 7.89496 10.468C7.41156 10.468 7.01947 10.8386 7.01947 11.3113C7.01947 11.7839 7.41156 12.1545 7.89496 12.1545Z" fill="#F0483E"/>
</svg>
