<svg width="16" height="16" viewBox="0 0 16 16" fill="none" xmlns="http://www.w3.org/2000/svg">
<path d="M12.2426 3.75728C12.0181 3.53273 11.654 3.53273 11.4295 3.75728L7.99983 7.1869L4.57052 3.75758C4.34597 3.53303 3.9819 3.53303 3.75735 3.75758C3.5328 3.98214 3.5328 4.34621 3.75735 4.57076L7.18666 8.00007L3.75734 11.4294C3.53279 11.6539 3.53279 12.018 3.75734 12.2426C3.98189 12.4671 4.34596 12.4671 4.57051 12.2426L7.99983 8.81324L11.4295 12.2429C11.654 12.4674 12.0181 12.4674 12.2426 12.2429C12.4672 12.0183 12.4672 11.6542 12.2426 11.4297L8.81301 8.00007L12.2426 4.57045C12.4672 4.3459 12.4672 3.98183 12.2426 3.75728Z" fill="#2C3852" fill-opacity="0.6"/>
</svg>
