<svg width="16" height="16" viewBox="0 0 16 16" fill="none" xmlns="http://www.w3.org/2000/svg">
<path d="M4.46431 4.46457C4.23976 4.68912 4.23976 5.05319 4.46431 5.27774L7.18668 8.00011L4.46445 10.7223C4.2399 10.9469 4.2399 11.311 4.46445 11.5355C4.689 11.7601 5.05307 11.7601 5.27763 11.5355L7.99985 8.81328L10.7222 11.5356C10.9468 11.7602 11.3108 11.7602 11.5354 11.5356C11.7599 11.3111 11.7599 10.947 11.5354 10.7225L8.81302 8.00011L11.5355 5.27761C11.7601 5.05306 11.7601 4.68899 11.5355 4.46443C11.311 4.23988 10.9469 4.23988 10.7223 4.46443L7.99985 7.18693L5.27748 4.46457C5.05293 4.24002 4.68886 4.24002 4.46431 4.46457Z" fill="#2C3852" fill-opacity="0.6"/>
</svg>
