<svg width="16" height="16" viewBox="0 0 16 16" fill="none" xmlns="http://www.w3.org/2000/svg">
<path fill-rule="evenodd" clip-rule="evenodd" d="M3.05028 9.4142L6.86865 5.59582C6.87513 5.58934 6.88156 5.58292 6.88793 5.57655C7.27116 5.19336 7.46641 5.00058 7.69101 4.92761C7.89185 4.86235 8.1082 4.86235 8.30904 4.92761C8.53737 5.00179 8.73538 5.1998 9.1314 5.59582L12.9498 9.4142C13.3403 9.80472 13.3403 10.4379 12.9498 10.8284C12.5592 11.2189 11.9261 11.2189 11.5356 10.8284L8.00003 7.29288L4.46449 10.8284C4.07397 11.2189 3.4408 11.2189 3.05028 10.8284C2.65975 10.4379 2.65975 9.80472 3.05028 9.4142Z" fill="#2C3852" fill-opacity="0.6"/>
</svg>
